@startuml
[*] --> S1
S1 --> S2 : event1
S2 --> S3
S3 --> S4 : event3 [guard3] / action3
S4 --> S5 : event4
S5 --> S6
S6 --> S7 : event6 [guard6] / action6
S7 --> S8 : event7
S8 --> S9
S9 --> S10 : event9 [guard9] / action9
S10 --> S11 : event10
S11 --> S12
S12 --> S13 : event12 [guard12] / action12
S13 --> S14 : event13
S14 --> S15
S15 --> S16 : event15 [guard15] / action15
S16 --> S17 : event16
S17 --> S18
S18 --> [*]
@enduml
