@startuml
title "Class Diagram 275"
class Entity1_275 {
  - id : Long
  + getId() : Long
  + process_1() : void
}
class Entity2_275 {
  - id : Long
  + getId() : Long
  + process_2() : void
}
class Entity3_275 {
  - id : Long
  + getId() : Long
  + process_3() : void
}
class Entity4_275 {
  - id : Long
  + getId() : Long
  + process_4() : void
}
class Entity5_275 {
  - id : Long
  + getId() : Long
  + process_5() : void
}
class Entity6_275 {
  - id : Long
  + getId() : Long
  + process_6() : void
}
Entity1_275 --|> Entity2_275
Entity2_275 --|> Entity3_275
Entity3_275 --|> Entity4_275
Entity4_275 --|> Entity5_275
Entity5_275 --|> Entity6_275
@enduml
