@startuml
class Cls001 { +void m1() }
class Cls002 { +void m2() }
class Cls003 { +void m3() }
class Cls004 { +void m4() }
class Cls005 { +void m5() }
class Cls006 { +void m6() }
class Cls007 { +void m7() }
class Cls008 { +void m8() }
class Cls009 { +void m9() }
class Cls010 { +void m10() }
class Cls011 { +void m11() }
class Cls012 { +void m12() }
class Cls013 { +void m13() }
class Cls014 { +void m14() }
class Cls015 { +void m15() }
class Cls016 { +void m16() }
class Cls017 { +void m17() }
class Cls018 { +void m18() }
class Cls019 { +void m19() }
class Cls020 { +void m20() }
class Cls021 { +void m21() }
class Cls022 { +void m22() }
class Cls023 { +void m23() }
class Cls024 { +void m24() }
class Cls025 { +void m25() }
class Cls026 { +void m26() }
class Cls027 { +void m27() }
class Cls028 { +void m28() }
class Cls029 { +void m29() }
class Cls030 { +void m30() }
class Cls031 { +void m31() }
class Cls032 { +void m32() }
class Cls033 { +void m33() }
class Cls034 { +void m34() }
class Cls035 { +void m35() }
class Cls036 { +void m36() }
class Cls037 { +void m37() }
class Cls038 { +void m38() }
class Cls039 { +void m39() }
class Cls040 { +void m40() }
class Cls041 { +void m41() }
class Cls042 { +void m42() }
class Cls043 { +void m43() }
class Cls044 { +void m44() }
class Cls045 { +void m45() }
class Cls046 { +void m46() }
class Cls047 { +void m47() }
class Cls048 { +void m48() }
class Cls049 { +void m49() }
class Cls050 { +void m50() }
Cls001 --> Cls002
Cls002 --> Cls003
Cls003 --> Cls004
Cls004 --> Cls005
Cls005 --> Cls006
Cls006 --> Cls007
Cls007 --> Cls008
Cls008 --> Cls009
Cls009 --> Cls010
Cls010 --> Cls011
Cls011 --> Cls012
Cls012 --> Cls013
Cls013 --> Cls014
Cls014 --> Cls015
Cls015 --> Cls016
Cls016 --> Cls017
Cls017 --> Cls018
Cls018 --> Cls019
Cls019 --> Cls020
Cls020 --> Cls021
Cls021 --> Cls022
Cls022 --> Cls023
Cls023 --> Cls024
Cls024 --> Cls025
Cls025 --> Cls026
Cls026 --> Cls027
Cls027 --> Cls028
Cls028 --> Cls029
Cls029 --> Cls030
Cls030 --> Cls031
Cls031 --> Cls032
Cls032 --> Cls033
Cls033 --> Cls034
Cls034 --> Cls035
Cls035 --> Cls036
Cls036 --> Cls037
Cls037 --> Cls038
Cls038 --> Cls039
Cls039 --> Cls040
Cls040 --> Cls041
Cls041 --> Cls042
Cls042 --> Cls043
Cls043 --> Cls044
Cls044 --> Cls045
Cls045 --> Cls046
Cls046 --> Cls047
Cls047 --> Cls048
Cls048 --> Cls049
Cls049 --> Cls050
@enduml
